<mxfile host="app.diagrams.net" modified="2023-10-03T17:31:48.979Z" agent="Mozilla/5.0 (Windows NT 10.0; Win64; x64) AppleWebKit/537.36 (KHTML, like Gecko) Chrome/117.0.0.0 Safari/537.36" etag="vx5yy4p4QcHAW5PM8VwT" version="22.0.0" type="github">
  <diagram name="Trang-1" id="nmPFpMEzSDUXhJ7an1Jv">
    <mxGraphModel dx="1290" dy="534" grid="1" gridSize="10" guides="1" tooltips="1" connect="1" arrows="1" fold="1" page="1" pageScale="1" pageWidth="827" pageHeight="1169" math="0" shadow="0">
      <root>
        <mxCell id="0" />
        <mxCell id="1" parent="0" />
        <mxCell id="d5UIeahMN6G-vzAZ9-aK-1" value="IsValidDate(Year: Short, Month: Byte, Day: Byte):Boolean" style="rounded=1;whiteSpace=wrap;html=1;" parent="1" vertex="1">
          <mxGeometry x="198.75" y="30" width="260" height="60" as="geometry" />
        </mxCell>
        <mxCell id="d5UIeahMN6G-vzAZ9-aK-2" value="Month &amp;gt; = 1 And Month &amp;lt;=&amp;nbsp; 12?" style="rhombus;whiteSpace=wrap;html=1;" parent="1" vertex="1">
          <mxGeometry x="188.75" y="130" width="280" height="50" as="geometry" />
        </mxCell>
        <mxCell id="d5UIeahMN6G-vzAZ9-aK-3" value="Day &amp;gt;=1 And Day &amp;lt;= 28?" style="rhombus;whiteSpace=wrap;html=1;" parent="1" vertex="1">
          <mxGeometry x="227.5" y="250" width="202.5" height="70" as="geometry" />
        </mxCell>
        <mxCell id="d5UIeahMN6G-vzAZ9-aK-7" value="Day&amp;nbsp; = 29" style="rhombus;whiteSpace=wrap;html=1;" parent="1" vertex="1">
          <mxGeometry x="60" y="360" width="130" height="80" as="geometry" />
        </mxCell>
        <mxCell id="d5UIeahMN6G-vzAZ9-aK-8" value="Day = 30&amp;nbsp;" style="rhombus;whiteSpace=wrap;html=1;" parent="1" vertex="1">
          <mxGeometry x="60" y="530" width="130" height="80" as="geometry" />
        </mxCell>
        <mxCell id="d5UIeahMN6G-vzAZ9-aK-9" value="Day = 31" style="rhombus;whiteSpace=wrap;html=1;" parent="1" vertex="1">
          <mxGeometry x="60" y="720" width="130" height="80" as="geometry" />
        </mxCell>
        <mxCell id="d5UIeahMN6G-vzAZ9-aK-10" value="" style="endArrow=classic;html=1;rounded=0;exitX=0;exitY=0.5;exitDx=0;exitDy=0;entryX=0.5;entryY=0;entryDx=0;entryDy=0;" parent="1" source="d5UIeahMN6G-vzAZ9-aK-3" target="d5UIeahMN6G-vzAZ9-aK-7" edge="1">
          <mxGeometry width="50" height="50" relative="1" as="geometry">
            <mxPoint x="520" y="420" as="sourcePoint" />
            <mxPoint x="130" y="300" as="targetPoint" />
            <Array as="points">
              <mxPoint x="125" y="285" />
            </Array>
          </mxGeometry>
        </mxCell>
        <mxCell id="d5UIeahMN6G-vzAZ9-aK-72" value="No&lt;br&gt;" style="edgeLabel;html=1;align=center;verticalAlign=middle;resizable=0;points=[];" parent="d5UIeahMN6G-vzAZ9-aK-10" vertex="1" connectable="0">
          <mxGeometry x="0.0626" y="-2" relative="1" as="geometry">
            <mxPoint as="offset" />
          </mxGeometry>
        </mxCell>
        <mxCell id="d5UIeahMN6G-vzAZ9-aK-15" value="" style="endArrow=classic;html=1;rounded=0;exitX=0.5;exitY=1;exitDx=0;exitDy=0;entryX=0.5;entryY=0;entryDx=0;entryDy=0;" parent="1" source="d5UIeahMN6G-vzAZ9-aK-7" target="d5UIeahMN6G-vzAZ9-aK-8" edge="1">
          <mxGeometry width="50" height="50" relative="1" as="geometry">
            <mxPoint x="124.5" y="550" as="sourcePoint" />
            <mxPoint x="125" y="490" as="targetPoint" />
          </mxGeometry>
        </mxCell>
        <mxCell id="d5UIeahMN6G-vzAZ9-aK-88" value="No" style="edgeLabel;html=1;align=center;verticalAlign=middle;resizable=0;points=[];" parent="d5UIeahMN6G-vzAZ9-aK-15" vertex="1" connectable="0">
          <mxGeometry x="-0.1259" y="1" relative="1" as="geometry">
            <mxPoint y="-1" as="offset" />
          </mxGeometry>
        </mxCell>
        <mxCell id="d5UIeahMN6G-vzAZ9-aK-19" value="" style="endArrow=classic;html=1;rounded=0;exitX=0.5;exitY=1;exitDx=0;exitDy=0;entryX=0.5;entryY=0;entryDx=0;entryDy=0;" parent="1" source="d5UIeahMN6G-vzAZ9-aK-8" target="d5UIeahMN6G-vzAZ9-aK-9" edge="1">
          <mxGeometry width="50" height="50" relative="1" as="geometry">
            <mxPoint x="495" y="420" as="sourcePoint" />
            <mxPoint x="545" y="370" as="targetPoint" />
          </mxGeometry>
        </mxCell>
        <mxCell id="d5UIeahMN6G-vzAZ9-aK-89" value="No" style="edgeLabel;html=1;align=center;verticalAlign=middle;resizable=0;points=[];" parent="d5UIeahMN6G-vzAZ9-aK-19" vertex="1" connectable="0">
          <mxGeometry x="-0.1273" relative="1" as="geometry">
            <mxPoint as="offset" />
          </mxGeometry>
        </mxCell>
        <mxCell id="d5UIeahMN6G-vzAZ9-aK-21" value="" style="endArrow=classic;html=1;rounded=0;exitX=1;exitY=0.5;exitDx=0;exitDy=0;" parent="1" source="d5UIeahMN6G-vzAZ9-aK-7" target="d5UIeahMN6G-vzAZ9-aK-22" edge="1">
          <mxGeometry width="50" height="50" relative="1" as="geometry">
            <mxPoint x="495" y="440" as="sourcePoint" />
            <mxPoint x="315" y="400" as="targetPoint" />
          </mxGeometry>
        </mxCell>
        <mxCell id="d5UIeahMN6G-vzAZ9-aK-87" value="Yes" style="edgeLabel;html=1;align=center;verticalAlign=middle;resizable=0;points=[];" parent="d5UIeahMN6G-vzAZ9-aK-21" vertex="1" connectable="0">
          <mxGeometry x="-0.2173" y="-1" relative="1" as="geometry">
            <mxPoint as="offset" />
          </mxGeometry>
        </mxCell>
        <mxCell id="d5UIeahMN6G-vzAZ9-aK-22" value="Month = 2" style="rhombus;whiteSpace=wrap;html=1;" parent="1" vertex="1">
          <mxGeometry x="275" y="360" width="130" height="80" as="geometry" />
        </mxCell>
        <mxCell id="d5UIeahMN6G-vzAZ9-aK-23" value="" style="endArrow=classic;html=1;rounded=0;exitX=1;exitY=0.5;exitDx=0;exitDy=0;entryX=0;entryY=0.5;entryDx=0;entryDy=0;" parent="1" source="d5UIeahMN6G-vzAZ9-aK-22" target="d5UIeahMN6G-vzAZ9-aK-25" edge="1">
          <mxGeometry width="50" height="50" relative="1" as="geometry">
            <mxPoint x="495" y="440" as="sourcePoint" />
            <mxPoint x="340" y="470" as="targetPoint" />
          </mxGeometry>
        </mxCell>
        <mxCell id="d5UIeahMN6G-vzAZ9-aK-24" value="Yes" style="edgeLabel;html=1;align=center;verticalAlign=middle;resizable=0;points=[];" parent="d5UIeahMN6G-vzAZ9-aK-23" vertex="1" connectable="0">
          <mxGeometry x="-0.2205" relative="1" as="geometry">
            <mxPoint y="-1" as="offset" />
          </mxGeometry>
        </mxCell>
        <mxCell id="d5UIeahMN6G-vzAZ9-aK-25" value="Month % 100 = 0&amp;nbsp;&lt;br&gt;And&lt;br&gt;Month % 400 = 0?" style="rhombus;whiteSpace=wrap;html=1;" parent="1" vertex="1">
          <mxGeometry x="445" y="350" width="165" height="100" as="geometry" />
        </mxCell>
        <mxCell id="d5UIeahMN6G-vzAZ9-aK-26" value="" style="endArrow=classic;html=1;rounded=0;exitX=0.5;exitY=1;exitDx=0;exitDy=0;" parent="1" source="d5UIeahMN6G-vzAZ9-aK-22" edge="1">
          <mxGeometry width="50" height="50" relative="1" as="geometry">
            <mxPoint x="495" y="440" as="sourcePoint" />
            <mxPoint x="340" y="490" as="targetPoint" />
          </mxGeometry>
        </mxCell>
        <mxCell id="d5UIeahMN6G-vzAZ9-aK-30" value="No&lt;br&gt;" style="edgeLabel;html=1;align=center;verticalAlign=middle;resizable=0;points=[];" parent="d5UIeahMN6G-vzAZ9-aK-26" vertex="1" connectable="0">
          <mxGeometry x="0.2062" y="-1" relative="1" as="geometry">
            <mxPoint y="-1" as="offset" />
          </mxGeometry>
        </mxCell>
        <mxCell id="d5UIeahMN6G-vzAZ9-aK-31" value="Return false" style="rounded=0;whiteSpace=wrap;html=1;" parent="1" vertex="1">
          <mxGeometry x="285" y="490" width="120" height="60" as="geometry" />
        </mxCell>
        <mxCell id="d5UIeahMN6G-vzAZ9-aK-32" value="" style="endArrow=none;html=1;rounded=0;exitX=1;exitY=0.5;exitDx=0;exitDy=0;" parent="1" source="d5UIeahMN6G-vzAZ9-aK-8" edge="1">
          <mxGeometry width="50" height="50" relative="1" as="geometry">
            <mxPoint x="495" y="440" as="sourcePoint" />
            <mxPoint x="655" y="570" as="targetPoint" />
          </mxGeometry>
        </mxCell>
        <mxCell id="d5UIeahMN6G-vzAZ9-aK-33" value="" style="endArrow=none;html=1;rounded=0;entryX=1;entryY=0.5;entryDx=0;entryDy=0;" parent="1" target="d5UIeahMN6G-vzAZ9-aK-25" edge="1">
          <mxGeometry width="50" height="50" relative="1" as="geometry">
            <mxPoint x="655" y="400" as="sourcePoint" />
            <mxPoint x="545" y="390" as="targetPoint" />
          </mxGeometry>
        </mxCell>
        <mxCell id="d5UIeahMN6G-vzAZ9-aK-34" value="" style="endArrow=classic;html=1;rounded=0;exitX=1;exitY=0.5;exitDx=0;exitDy=0;" parent="1" source="d5UIeahMN6G-vzAZ9-aK-9" target="d5UIeahMN6G-vzAZ9-aK-35" edge="1">
          <mxGeometry width="50" height="50" relative="1" as="geometry">
            <mxPoint x="495" y="750" as="sourcePoint" />
            <mxPoint x="285" y="760" as="targetPoint" />
          </mxGeometry>
        </mxCell>
        <mxCell id="d5UIeahMN6G-vzAZ9-aK-90" value="Yes" style="edgeLabel;html=1;align=center;verticalAlign=middle;resizable=0;points=[];" parent="d5UIeahMN6G-vzAZ9-aK-34" vertex="1" connectable="0">
          <mxGeometry x="0.0091" y="-1" relative="1" as="geometry">
            <mxPoint as="offset" />
          </mxGeometry>
        </mxCell>
        <mxCell id="d5UIeahMN6G-vzAZ9-aK-35" value="Month = 1&lt;br&gt;And&lt;br&gt;Month&amp;nbsp; = 3&lt;br&gt;And&lt;br&gt;&amp;nbsp;Month = 5&lt;br&gt;And &lt;br&gt;Month = 7&lt;br&gt;And&lt;br&gt;Month = 8 &lt;br&gt;And&lt;br&gt;Month = 10&lt;br&gt;And &lt;br&gt;Mond = 12 ?" style="rhombus;whiteSpace=wrap;html=1;" parent="1" vertex="1">
          <mxGeometry x="285" y="605" width="240" height="310" as="geometry" />
        </mxCell>
        <mxCell id="d5UIeahMN6G-vzAZ9-aK-36" value="" style="endArrow=none;html=1;rounded=0;exitX=1;exitY=0.5;exitDx=0;exitDy=0;" parent="1" source="d5UIeahMN6G-vzAZ9-aK-35" edge="1">
          <mxGeometry width="50" height="50" relative="1" as="geometry">
            <mxPoint x="495" y="600" as="sourcePoint" />
            <mxPoint x="655" y="760" as="targetPoint" />
          </mxGeometry>
        </mxCell>
        <mxCell id="d5UIeahMN6G-vzAZ9-aK-39" value="" style="endArrow=classic;html=1;rounded=0;exitX=0.5;exitY=1;exitDx=0;exitDy=0;entryX=0.5;entryY=0;entryDx=0;entryDy=0;" parent="1" source="d5UIeahMN6G-vzAZ9-aK-25" target="d5UIeahMN6G-vzAZ9-aK-41" edge="1">
          <mxGeometry width="50" height="50" relative="1" as="geometry">
            <mxPoint x="530" y="450" as="sourcePoint" />
            <mxPoint x="525" y="510" as="targetPoint" />
          </mxGeometry>
        </mxCell>
        <mxCell id="d5UIeahMN6G-vzAZ9-aK-40" value="No&lt;br&gt;" style="edgeLabel;html=1;align=center;verticalAlign=middle;resizable=0;points=[];" parent="d5UIeahMN6G-vzAZ9-aK-39" vertex="1" connectable="0">
          <mxGeometry x="0.2062" y="-1" relative="1" as="geometry">
            <mxPoint y="-1" as="offset" />
          </mxGeometry>
        </mxCell>
        <mxCell id="d5UIeahMN6G-vzAZ9-aK-41" value="Return false" style="rounded=0;whiteSpace=wrap;html=1;" parent="1" vertex="1">
          <mxGeometry x="467.5" y="490" width="120" height="60" as="geometry" />
        </mxCell>
        <mxCell id="d5UIeahMN6G-vzAZ9-aK-44" value="" style="endArrow=classic;html=1;rounded=0;exitX=0.5;exitY=1;exitDx=0;exitDy=0;entryX=0.5;entryY=0;entryDx=0;entryDy=0;" parent="1" target="d5UIeahMN6G-vzAZ9-aK-46" edge="1">
          <mxGeometry width="50" height="50" relative="1" as="geometry">
            <mxPoint x="405.5" y="915" as="sourcePoint" />
            <mxPoint x="402.5" y="975" as="targetPoint" />
          </mxGeometry>
        </mxCell>
        <mxCell id="d5UIeahMN6G-vzAZ9-aK-45" value="No&lt;br&gt;" style="edgeLabel;html=1;align=center;verticalAlign=middle;resizable=0;points=[];" parent="d5UIeahMN6G-vzAZ9-aK-44" vertex="1" connectable="0">
          <mxGeometry x="0.2062" y="-1" relative="1" as="geometry">
            <mxPoint y="-1" as="offset" />
          </mxGeometry>
        </mxCell>
        <mxCell id="d5UIeahMN6G-vzAZ9-aK-46" value="Return false" style="rounded=0;whiteSpace=wrap;html=1;" parent="1" vertex="1">
          <mxGeometry x="345" y="940" width="120" height="60" as="geometry" />
        </mxCell>
        <mxCell id="d5UIeahMN6G-vzAZ9-aK-48" value="" style="endArrow=classic;html=1;rounded=0;entryX=0.5;entryY=0;entryDx=0;entryDy=0;" parent="1" target="d5UIeahMN6G-vzAZ9-aK-50" edge="1">
          <mxGeometry width="50" height="50" relative="1" as="geometry">
            <mxPoint x="655" y="400" as="sourcePoint" />
            <mxPoint x="632.5" y="860" as="targetPoint" />
          </mxGeometry>
        </mxCell>
        <mxCell id="d5UIeahMN6G-vzAZ9-aK-52" value="Yes&lt;br&gt;" style="edgeLabel;html=1;align=center;verticalAlign=middle;resizable=0;points=[];" parent="d5UIeahMN6G-vzAZ9-aK-48" vertex="1" connectable="0">
          <mxGeometry x="0.2" y="-2" relative="1" as="geometry">
            <mxPoint y="-1" as="offset" />
          </mxGeometry>
        </mxCell>
        <mxCell id="d5UIeahMN6G-vzAZ9-aK-50" value="Return true" style="rounded=0;whiteSpace=wrap;html=1;" parent="1" vertex="1">
          <mxGeometry x="595" y="840" width="120" height="60" as="geometry" />
        </mxCell>
        <mxCell id="d5UIeahMN6G-vzAZ9-aK-53" value="" style="endArrow=classic;html=1;rounded=0;exitX=0.5;exitY=1;exitDx=0;exitDy=0;entryX=0.5;entryY=0;entryDx=0;entryDy=0;" parent="1" source="d5UIeahMN6G-vzAZ9-aK-1" target="d5UIeahMN6G-vzAZ9-aK-2" edge="1">
          <mxGeometry width="50" height="50" relative="1" as="geometry">
            <mxPoint x="500" y="180" as="sourcePoint" />
            <mxPoint x="550" y="130" as="targetPoint" />
          </mxGeometry>
        </mxCell>
        <mxCell id="d5UIeahMN6G-vzAZ9-aK-54" value="" style="endArrow=classic;html=1;rounded=0;exitX=0.5;exitY=1;exitDx=0;exitDy=0;entryX=0.5;entryY=0;entryDx=0;entryDy=0;" parent="1" source="d5UIeahMN6G-vzAZ9-aK-2" target="d5UIeahMN6G-vzAZ9-aK-3" edge="1">
          <mxGeometry width="50" height="50" relative="1" as="geometry">
            <mxPoint x="339" y="100" as="sourcePoint" />
            <mxPoint x="450" y="200" as="targetPoint" />
          </mxGeometry>
        </mxCell>
        <mxCell id="d5UIeahMN6G-vzAZ9-aK-85" value="Yes" style="edgeLabel;html=1;align=center;verticalAlign=middle;resizable=0;points=[];" parent="d5UIeahMN6G-vzAZ9-aK-54" vertex="1" connectable="0">
          <mxGeometry x="0.0286" y="2" relative="1" as="geometry">
            <mxPoint as="offset" />
          </mxGeometry>
        </mxCell>
        <mxCell id="d5UIeahMN6G-vzAZ9-aK-55" value="Return false" style="rounded=0;whiteSpace=wrap;html=1;" parent="1" vertex="1">
          <mxGeometry x="540" y="125" width="120" height="60" as="geometry" />
        </mxCell>
        <mxCell id="d5UIeahMN6G-vzAZ9-aK-56" value="Return true" style="rounded=0;whiteSpace=wrap;html=1;" parent="1" vertex="1">
          <mxGeometry x="540" y="255" width="120" height="60" as="geometry" />
        </mxCell>
        <mxCell id="d5UIeahMN6G-vzAZ9-aK-57" value="" style="endArrow=classic;html=1;rounded=0;entryX=0;entryY=0.5;entryDx=0;entryDy=0;exitX=1;exitY=0.5;exitDx=0;exitDy=0;" parent="1" source="d5UIeahMN6G-vzAZ9-aK-2" target="d5UIeahMN6G-vzAZ9-aK-55" edge="1">
          <mxGeometry width="50" height="50" relative="1" as="geometry">
            <mxPoint x="500" y="330" as="sourcePoint" />
            <mxPoint x="550" y="280" as="targetPoint" />
          </mxGeometry>
        </mxCell>
        <mxCell id="d5UIeahMN6G-vzAZ9-aK-68" value="No" style="edgeLabel;html=1;align=center;verticalAlign=middle;resizable=0;points=[];" parent="d5UIeahMN6G-vzAZ9-aK-57" vertex="1" connectable="0">
          <mxGeometry x="-0.1466" y="-2" relative="1" as="geometry">
            <mxPoint as="offset" />
          </mxGeometry>
        </mxCell>
        <mxCell id="d5UIeahMN6G-vzAZ9-aK-58" value="" style="endArrow=classic;html=1;rounded=0;entryX=0;entryY=0.5;entryDx=0;entryDy=0;exitX=1;exitY=0.5;exitDx=0;exitDy=0;" parent="1" source="d5UIeahMN6G-vzAZ9-aK-3" target="d5UIeahMN6G-vzAZ9-aK-56" edge="1">
          <mxGeometry width="50" height="50" relative="1" as="geometry">
            <mxPoint x="500" y="330" as="sourcePoint" />
            <mxPoint x="550" y="280" as="targetPoint" />
          </mxGeometry>
        </mxCell>
        <mxCell id="d5UIeahMN6G-vzAZ9-aK-69" value="Yes&lt;br&gt;" style="edgeLabel;html=1;align=center;verticalAlign=middle;resizable=0;points=[];" parent="d5UIeahMN6G-vzAZ9-aK-58" vertex="1" connectable="0">
          <mxGeometry x="-0.1902" y="3" relative="1" as="geometry">
            <mxPoint y="3" as="offset" />
          </mxGeometry>
        </mxCell>
        <mxCell id="d5UIeahMN6G-vzAZ9-aK-60" value="" style="endArrow=none;html=1;rounded=0;entryX=1;entryY=0.5;entryDx=0;entryDy=0;" parent="1" target="d5UIeahMN6G-vzAZ9-aK-55" edge="1">
          <mxGeometry width="50" height="50" relative="1" as="geometry">
            <mxPoint x="780" y="155" as="sourcePoint" />
            <mxPoint x="550" y="440" as="targetPoint" />
          </mxGeometry>
        </mxCell>
        <mxCell id="d5UIeahMN6G-vzAZ9-aK-61" value="" style="endArrow=none;html=1;rounded=0;entryX=1;entryY=0.5;entryDx=0;entryDy=0;" parent="1" target="d5UIeahMN6G-vzAZ9-aK-50" edge="1">
          <mxGeometry width="50" height="50" relative="1" as="geometry">
            <mxPoint x="780" y="870" as="sourcePoint" />
            <mxPoint x="550" y="740" as="targetPoint" />
          </mxGeometry>
        </mxCell>
        <mxCell id="d5UIeahMN6G-vzAZ9-aK-62" value="" style="endArrow=none;html=1;rounded=0;exitX=1;exitY=0.5;exitDx=0;exitDy=0;" parent="1" source="d5UIeahMN6G-vzAZ9-aK-46" edge="1">
          <mxGeometry width="50" height="50" relative="1" as="geometry">
            <mxPoint x="500" y="950" as="sourcePoint" />
            <mxPoint x="780" y="970" as="targetPoint" />
          </mxGeometry>
        </mxCell>
        <mxCell id="d5UIeahMN6G-vzAZ9-aK-63" value="End" style="rounded=1;whiteSpace=wrap;html=1;" parent="1" vertex="1">
          <mxGeometry x="750" y="1060" width="60" height="60" as="geometry" />
        </mxCell>
        <mxCell id="d5UIeahMN6G-vzAZ9-aK-64" value="" style="endArrow=classic;html=1;rounded=0;entryX=0.5;entryY=0;entryDx=0;entryDy=0;" parent="1" target="d5UIeahMN6G-vzAZ9-aK-63" edge="1">
          <mxGeometry width="50" height="50" relative="1" as="geometry">
            <mxPoint x="780" y="150" as="sourcePoint" />
            <mxPoint x="550" y="900" as="targetPoint" />
          </mxGeometry>
        </mxCell>
        <mxCell id="d5UIeahMN6G-vzAZ9-aK-70" value="" style="endArrow=none;html=1;rounded=0;entryX=1;entryY=0.5;entryDx=0;entryDy=0;" parent="1" target="d5UIeahMN6G-vzAZ9-aK-56" edge="1">
          <mxGeometry width="50" height="50" relative="1" as="geometry">
            <mxPoint x="780" y="285" as="sourcePoint" />
            <mxPoint x="620" y="270" as="targetPoint" />
          </mxGeometry>
        </mxCell>
        <mxCell id="d5UIeahMN6G-vzAZ9-aK-80" value="Return false" style="rounded=0;whiteSpace=wrap;html=1;" parent="1" vertex="1">
          <mxGeometry x="65" y="1000" width="120" height="60" as="geometry" />
        </mxCell>
        <mxCell id="d5UIeahMN6G-vzAZ9-aK-81" value="" style="endArrow=classic;html=1;rounded=0;entryX=0.5;entryY=0;entryDx=0;entryDy=0;exitX=0.5;exitY=1;exitDx=0;exitDy=0;" parent="1" target="d5UIeahMN6G-vzAZ9-aK-80" edge="1">
          <mxGeometry width="50" height="50" relative="1" as="geometry">
            <mxPoint x="125" y="800" as="sourcePoint" />
            <mxPoint x="80" y="1010" as="targetPoint" />
          </mxGeometry>
        </mxCell>
        <mxCell id="d5UIeahMN6G-vzAZ9-aK-82" value="No" style="edgeLabel;html=1;align=center;verticalAlign=middle;resizable=0;points=[];" parent="d5UIeahMN6G-vzAZ9-aK-81" vertex="1" connectable="0">
          <mxGeometry x="-0.1466" y="-2" relative="1" as="geometry">
            <mxPoint as="offset" />
          </mxGeometry>
        </mxCell>
        <mxCell id="d5UIeahMN6G-vzAZ9-aK-84" value="" style="endArrow=none;html=1;rounded=0;exitX=1;exitY=0.5;exitDx=0;exitDy=0;" parent="1" source="d5UIeahMN6G-vzAZ9-aK-80" edge="1">
          <mxGeometry width="50" height="50" relative="1" as="geometry">
            <mxPoint x="660" y="930" as="sourcePoint" />
            <mxPoint x="780" y="1030" as="targetPoint" />
          </mxGeometry>
        </mxCell>
      </root>
    </mxGraphModel>
  </diagram>
</mxfile>
